# xmcd
#
# Track frame offsets: 
#        150
#        4219
#        44828
#        67555
#        87984
#        109715
#        158198
#        162259
#        213813
#
# Disc length: 2961 seconds
#
# Revision: 1
# Processed by: cddbd v1.5.2PL0 Copyright (c) Steve Scherf et al.
# Submitted via: ExactAudioCopy v0.99pb3
#
DISCID=6b0b8f09
DTITLE=Dizzy Gillespie - Live at the 1965 Monterey Jazz Festival
DYEAR=1965
DGENRE=Jazz
TTITLE0=Introduction
TTITLE1=Trinidad, Goodbye
TTITLE2=Day After
TTITLE3=Poor Joe
TTITLE4=Dizzy's Comedy Sketch
TTITLE5=A Night in Tunisia
TTITLE6=Band Introduction
TTITLE7=Ungawa
TTITLE8=Chega de Saudade (No More Blues)
EXTD=YEAR: 1965
EXTT0=
EXTT1=
EXTT2=
EXTT3=
EXTT4=
EXTT5=
EXTT6=
EXTT7=
EXTT8=
PLAYORDER=
